<?xml version="1.0" encoding="utf-8"?>
<!-- Generator: Adobe Illustrator 25.2.1, SVG Export Plug-In . SVG Version: 6.00 Build 0)  -->
<svg version="1.1" id="レイヤー_1" xmlns="http://www.w3.org/2000/svg" xmlns:xlink="http://www.w3.org/1999/xlink" x="0px"
	 y="0px" viewBox="0 0 903 994.7" style="enable-background:new 0 0 903 994.7;" xml:space="preserve">
<style type="text/css">
	.st0{fill:#FFFFFF;}
</style>
<g>
	<path class="st0" d="M278.5,143.6c0-58.4,50.6-106.1,109-106.1c63.3,0,109,42.8,109,106.1c0,58.4-50.6,106.1-109,106.1
		C324.2,249.7,278.5,206.9,278.5,143.6z M442,143.6c0-32.1-22.4-55.5-54.5-55.5c-31.1,0-54.5,23.4-54.5,55.5
		c0,31.1,23.4,55.5,54.5,55.5C419.6,199.1,442,174.7,442,143.6z"/>
	<path class="st0" d="M526.8,118.3c0-44.8,32.1-75.9,75.9-75.9h19.5V93h-15.6c-14.6,0-25.3,9.7-25.3,25.3v126.5h-54.5L526.8,118.3
		L526.8,118.3z"/>
	<path class="st0" d="M648.3,143.6V42.4h54.5v101.2c0,31.1,23.4,55.5,54.5,55.5c32.1,0,54.5-24.3,54.5-55.5V42.4h54.5v101.2
		c0,63.3-54.5,106.1-110,106.1C693.1,249.7,648.3,206.9,648.3,143.6z"/>
	<path class="st0" d="M254.5,37.5h-0.2h-16.9H200v58.9v1.3c0,31.1-22.4,55.5-54.5,55.5c-31,0-54.2-24.1-54.5-54.9V97V37.5H36.5v60.2
		c0,63.3,42.8,106.1,104.1,106.1c25.3,0,48.7-8.8,60.3-22.4V199c0,33.1-22.4,58.4-55.5,58.4v47.7c58.4,0,109-42.8,109-106.1V97.7
		c0-0.4,0-0.9,0-1.3l0,0L254.5,37.5L254.5,37.5z"/>
</g>
<g>
	<path class="st0" d="M294.7,502.9c0.9,0.3,1.6,0.4,3,0.4c1.7,0,3.4-0.1,6.5-0.6c5.3-0.7,10-1.3,14.2-1.7c4.2-0.4,7.7-0.7,12-1.1
		c0.4-6,0.9-11.9,1.1-18.1c-0.9,0.3-1.3,0.4-4.3,0.6c-2,0.1-8.3,0.9-13.9,1.7c-3.7,0.6-5.3,0.9-8.5,1.4c-0.7,0.1-1.6,0.3-2.2,0.3
		c-2.3,0-4.4-2.7-5.2-6.5c0-0.3,0.1-0.3,0.3-0.1c1.6,0.7,2.7,0.9,4.9,0.9c2,0,6.3-0.3,12-1.1c6-0.9,7.6-1.1,9.6-2
		c1.7-0.6,2.4-0.7,3.2-0.7c1.3,0,2.4,0.3,4,1.4c0.1-6,0.3-11.6,0.3-15.6c0-2-0.1-2.3-1.3-2.3c-1,0-4,0.3-10.6,1.1
		c-7,0.9-11.3,1.4-16.3,2.7c-1.6,0.3-2.6,0.6-3.3,0.6c-2.6,0-4.4-2.4-5.3-6.9c0-0.3,0.1-0.3,0.3-0.1c1.3,0.7,2.2,0.9,4.3,0.9
		c1.9,0,3.9-0.3,9.5-0.9c7.5-0.9,10.9-1.1,16.2-2c4.3-0.7,5-1,6.5-1.9c0.7-0.6,1.3-0.7,2-0.7c1.1,0,2.3,0.6,4.6,2.6
		c2.3,1.9,3,2.7,3,4c0,0.7-0.1,1-1.1,2.3c-0.7,0.9-0.7,1.7-0.9,3.7c-0.4,5.9-0.7,11.6-1.1,16.9c-0.4,6.5-0.9,11.8-1.3,17.5
		c1.7,0.9,2.4,2,2.4,3.4c0,1.7-1.1,2.9-3,2.9c-0.7,0-1.1,0-2.2-0.1c-1-0.1-2-0.1-2.9-0.1c-5.7,0-11.2,0.3-16.2,0.7
		c-4.7,0.6-9,1.1-12.8,2c-2,0.4-2.3,0.6-2.9,0.6c-2.4,0-4.6-2.4-5.3-6.2C294.2,502.9,294.4,502.9,294.7,502.9z"/>
	<path class="st0" d="M532.6,512.8c8.3-5.7,13.1-11.8,16.1-20.8c1.9-5.3,3-13.5,3.4-19.4c0.1-0.9,0.1-1.9,0.1-2.6
		c0-1.9-0.3-2.3-2.2-3.4c-0.7-0.3-1-0.6-1-0.7c0-0.4,0.9-1.3,1.9-1.9c0.9-0.6,2-0.9,3-0.9c3.3,0,7.6,3.2,7.6,5.9
		c0,0.9-0.3,1.3-0.7,1.9c-0.6,0.7-0.6,1.1-0.7,2.3c-1,9.6-3.2,18.1-6.7,24.2c-4.3,7.3-10.6,12.2-20.4,15.9
		C532.4,513.5,532.2,513.1,532.6,512.8z M608.6,477.1c-4.3,10.2-11.6,18.1-21.4,23.4c-4.6,2.4-10.2,4.4-12.3,4.4c-1.6,0-3-0.7-4-1.7
		c-1.1-1.1-1.6-3-1.6-5.2c0-1.7-0.1-5,0-9c0-3.4,0.1-7.7,0.1-11.9c0.1-4.6,0.3-10.2,0.3-13.5c0-3.2-0.3-3.9-2.3-4.6
		c-0.7-0.3-1-0.4-1-0.6c0-0.3,0.6-1.1,1.3-1.7c1-0.9,2.3-1.3,3.6-1.3c3.4,0,7.6,3.2,7.6,5.7c0,0.7-0.1,1.1-0.9,1.7
		c-0.7,0.7-0.9,1-1.1,3.2c-0.6,6.5-0.9,16.1-0.9,23.2c0,6.9,0.1,7.3,1.3,7.3c2.2,0,8.3-2.3,12.8-4.6c7.5-3.9,13.1-8.5,18.1-15.2
		C608.3,476.5,608.7,476.7,608.6,477.1z"/>
</g>
</svg>
