<?xml version="1.0" encoding="utf-8"?>
<!-- Generator: Adobe Illustrator 25.2.1, SVG Export Plug-In . SVG Version: 6.00 Build 0)  -->
<svg version="1.1" id="レイヤー_1" xmlns="http://www.w3.org/2000/svg" xmlns:xlink="http://www.w3.org/1999/xlink" x="0px"
	 y="0px" viewBox="0 0 903 326" style="enable-background:new 0 0 903 326;" xml:space="preserve">
<style type="text/css">
	.st0{fill:#FFFFFF;}
</style>
<g>
	<path class="st0" d="M278.5,143.6c0-58.4,50.6-106.1,109-106.1c63.3,0,109,42.8,109,106.1c0,58.4-50.6,106.1-109,106.1
		C324.2,249.7,278.5,206.9,278.5,143.6z M442,143.6c0-32.1-22.4-55.5-54.5-55.5c-31.1,0-54.5,23.4-54.5,55.5
		c0,31.1,23.4,55.5,54.5,55.5C419.6,199.1,442,174.7,442,143.6z"/>
	<path class="st0" d="M526.8,118.3c0-44.8,32.1-75.9,75.9-75.9h19.5V93h-15.6c-14.6,0-25.3,9.7-25.3,25.3v126.5h-54.5L526.8,118.3
		L526.8,118.3z"/>
	<path class="st0" d="M648.3,143.6V42.4h54.5v101.2c0,31.1,23.4,55.5,54.5,55.5c32.1,0,54.5-24.3,54.5-55.5V42.4h54.5v101.2
		c0,63.3-54.5,106.1-110,106.1C693.1,249.7,648.3,206.9,648.3,143.6z"/>
	<path class="st0" d="M254.5,37.5h-0.2h-16.9H200v58.9v1.3c0,31.1-22.4,55.5-54.5,55.5c-31,0-54.2-24.1-54.5-54.9V97V37.5H36.5v60.2
		c0,63.3,42.8,106.1,104.1,106.1c25.3,0,48.7-8.8,60.3-22.4V199c0,33.1-22.4,58.4-55.5,58.4v47.7c58.4,0,109-42.8,109-106.1V97.7
		c0-0.4,0-0.9,0-1.3l0,0L254.5,37.5L254.5,37.5z"/>
</g>
</svg>
