<?xml version="1.0" encoding="utf-8"?>
<!-- Generator: Adobe Illustrator 25.2.1, SVG Export Plug-In . SVG Version: 6.00 Build 0)  -->
<svg version="1.1" id="レイヤー_1" xmlns="http://www.w3.org/2000/svg" xmlns:xlink="http://www.w3.org/1999/xlink" x="0px"
	 y="0px" viewBox="0 0 903 463" style="enable-background:new 0 0 903 463;" xml:space="preserve">
<style type="text/css">
	.st0{fill:#FFFFFF;}
</style>
<g>
	<path class="st0" d="M278.5,143.6c0-58.4,50.6-106.1,109-106.1c63.3,0,109,42.8,109,106.1c0,58.4-50.6,106.1-109,106.1
		C324.2,249.7,278.5,206.9,278.5,143.6z M442,143.6c0-32.1-22.4-55.5-54.5-55.5c-31.1,0-54.5,23.4-54.5,55.5
		c0,31.1,23.4,55.5,54.5,55.5C419.6,199.1,442,174.7,442,143.6z"/>
	<path class="st0" d="M526.8,118.3c0-44.8,32.1-75.9,75.9-75.9h19.5V93h-15.6c-14.6,0-25.3,9.7-25.3,25.3v126.5h-54.5V118.3z"/>
	<path class="st0" d="M648.3,143.6V42.4h54.5v101.2c0,31.1,23.4,55.5,54.5,55.5c32.1,0,54.5-24.3,54.5-55.5V42.4h54.5v101.2
		c0,63.3-54.5,106.1-110,106.1C693.1,249.7,648.3,206.9,648.3,143.6z"/>
	<path class="st0" d="M254.5,37.5h-0.2h-16.9H200v58.9v1.3c0,31.1-22.4,55.5-54.5,55.5c-31,0-54.2-24.1-54.5-54.9V97V37.5H36.5v60.2
		c0,63.3,42.8,106.1,104.1,106.1c25.3,0,48.7-8.8,60.3-22.4V199c0,33.1-22.4,58.4-55.5,58.4v47.7c58.4,0,109-42.8,109-106.1V97.7
		c0-0.4,0-0.9,0-1.3h0V37.5z"/>
</g>
<g>
	<path class="st0" d="M342.1,417.9c0.6,0.2,1.1,0.3,2.1,0.3c1.2,0,2.4-0.1,4.5-0.4c3.7-0.5,7-0.9,9.9-1.2c2.9-0.3,5.4-0.5,8.4-0.8
		c0.3-4.2,0.6-8.3,0.8-12.6c-0.6,0.2-0.9,0.3-3,0.4c-1.4,0.1-5.8,0.6-9.7,1.2c-2.6,0.4-3.7,0.6-5.9,1c-0.5,0.1-1.1,0.2-1.5,0.2
		c-1.6,0-3.1-1.9-3.6-4.5c0-0.2,0.1-0.2,0.2-0.1c1.1,0.5,1.9,0.6,3.4,0.6c1.4,0,4.4-0.2,8.4-0.8c4.2-0.6,5.3-0.8,6.7-1.4
		c1.2-0.4,1.7-0.5,2.2-0.5c0.9,0,1.7,0.2,2.8,1c0.1-4.2,0.2-8.1,0.2-10.9c0-1.4-0.1-1.6-0.9-1.6c-0.7,0-2.8,0.2-7.4,0.8
		c-4.9,0.6-7.9,1-11.4,1.9c-1.1,0.2-1.8,0.4-2.3,0.4c-1.8,0-3.1-1.7-3.7-4.8c0-0.2,0.1-0.2,0.2-0.1c0.9,0.5,1.5,0.6,3,0.6
		c1.3,0,2.7-0.2,6.6-0.6c5.2-0.6,7.6-0.8,11.3-1.4c3-0.5,3.5-0.7,4.5-1.3c0.5-0.4,0.9-0.5,1.4-0.5c0.8,0,1.6,0.4,3.2,1.8
		c1.6,1.3,2.1,1.9,2.1,2.8c0,0.5-0.1,0.7-0.8,1.6c-0.5,0.6-0.5,1.2-0.6,2.6c-0.3,4.1-0.5,8.1-0.8,11.8c-0.3,4.5-0.6,8.2-0.9,12.2
		c1.2,0.6,1.7,1.4,1.7,2.4c0,1.2-0.8,2-2.1,2c-0.5,0-0.8,0-1.5-0.1c-0.7-0.1-1.4-0.1-2-0.1c-4,0-7.8,0.2-11.3,0.5
		c-3.3,0.4-6.3,0.8-8.9,1.4c-1.4,0.3-1.6,0.4-2,0.4c-1.7,0-3.2-1.7-3.7-4.3C341.8,417.9,341.9,417.9,342.1,417.9z"/>
	<path class="st0" d="M508,424.8c5.8-4,9.1-8.2,11.2-14.5c1.3-3.7,2.1-9.4,2.4-13.5c0.1-0.6,0.1-1.3,0.1-1.8c0-1.3-0.2-1.6-1.5-2.4
		c-0.5-0.2-0.7-0.4-0.7-0.5c0-0.3,0.6-0.9,1.3-1.3c0.6-0.4,1.4-0.6,2.1-0.6c2.3,0,5.3,2.2,5.3,4.1c0,0.6-0.2,0.9-0.5,1.3
		c-0.4,0.5-0.4,0.8-0.5,1.6c-0.7,6.7-2.2,12.6-4.7,16.9c-3,5.1-7.4,8.5-14.2,11.1C507.9,425.3,507.7,425,508,424.8z M561,399.9
		c-3,7.1-8.1,12.6-14.9,16.3c-3.2,1.7-7.1,3.1-8.6,3.1c-1.1,0-2.1-0.5-2.8-1.2c-0.8-0.8-1.1-2.1-1.1-3.6c0-1.2-0.1-3.5,0-6.3
		c0-2.4,0.1-5.4,0.1-8.3c0.1-3.2,0.2-7.1,0.2-9.4c0-2.2-0.2-2.7-1.6-3.2c-0.5-0.2-0.7-0.3-0.7-0.4c0-0.2,0.4-0.8,0.9-1.2
		c0.7-0.6,1.6-0.9,2.5-0.9c2.4,0,5.3,2.2,5.3,4c0,0.5-0.1,0.8-0.6,1.2c-0.5,0.5-0.6,0.7-0.8,2.2c-0.4,4.5-0.6,11.2-0.6,16.2
		c0,4.8,0.1,5.1,0.9,5.1c1.5,0,5.8-1.6,8.9-3.2c5.2-2.7,9.1-5.9,12.6-10.6C560.8,399.5,561.1,399.6,561,399.9z"/>
</g>
</svg>
